<svg id="Layer_1" data-name="Layer 1" xmlns="http://www.w3.org/2000/svg" viewBox="0 0 300 107"><defs><style>.cls-1{fill:#6ccff4;}.cls-2{fill:#231f20;}</style></defs><title>birugold</title><path class="cls-1" d="M46.24,48.83l-13.74-19s1-12.3,9.72-16.8l5.34,5.41L52.93,13s8,3.43,9.59,16.9L48.81,48.78V41.25H46.24Z"/><path class="cls-1" d="M50.74,55.18,73,62.52S79.47,73,75,81.83l-7.5-1.24-1.18,7.53s-8.52,1.95-17.68-8.05V56.73l4.42,6.09,2.08-1.51Z"/><path class="cls-1" d="M46.3,56.57,46,80.05S38,89.36,28.24,87.79l-1.08-7.53-7.54,1.16S15.18,73.88,22,62.13L44.2,55.08l-4.47,6.05,2.07,1.53Z"/><path class="cls-1" d="M50.51,50.48,64.12,31.35s11.95-3,19,3.81L79.75,42l6.84,3.36S85.93,54,73.67,59.82L51.38,52.9l7.12-2.41-.82-2.44Z"/><path class="cls-1" d="M44.18,50.48,30.56,31.35s-11.95-3-19,3.81L14.94,42,8.09,45.31S8.75,54,21,59.82L43.3,52.9l-7.12-2.41L37,48.05Z"/><path class="cls-2" d="M105.89,33.52h6.63l-6,6.85,6.1,9.8h-6.31l-3.46-6.1L100,46.44v3.73H94.61V33.52H100v7.11Z"/><path class="cls-2" d="M123.08,50.17V33.52h5.35V50.17Z"/><path class="cls-2" d="M152.22,50.17l-7-8.08v8.08h-4.91V33.52H145l7,8.2v-8.2h4.91V50.17Z"/><path class="cls-2" d="M178.12,37.78V50.17h-5.35V37.78H167.3V33.52h16.26v4.26Z"/><path class="cls-2" d="M206.32,34.52a4.35,4.35,0,0,1,2.1,3.84v.29h-5v-.1a1.58,1.58,0,0,0-.53-1.21,2.38,2.38,0,0,0-1.62-.48,3.46,3.46,0,0,0-1.64.31.9.9,0,0,0-.56.78,1,1,0,0,0,.77,1,15.61,15.61,0,0,0,2.49.65,26.25,26.25,0,0,1,3.31.86,5.65,5.65,0,0,1,2.26,1.46,3.88,3.88,0,0,1,1,2.76,5,5,0,0,1-2,4.38,9,9,0,0,1-5.34,1.43,11.72,11.72,0,0,1-6.07-1.31q-2.16-1.3-2.16-4.62h5.06a1.87,1.87,0,0,0,.65,1.68,3.74,3.74,0,0,0,2,.43,5.73,5.73,0,0,0,1.69-.22.87.87,0,0,0,.66-.9c0-.4-.24-.7-.74-.9a14,14,0,0,0-2.4-.65,28.6,28.6,0,0,1-3.37-.9,5.75,5.75,0,0,1-2.32-1.56,4.26,4.26,0,0,1-1-3,4.4,4.4,0,0,1,2.12-4,10.15,10.15,0,0,1,5.36-1.29A9.78,9.78,0,0,1,206.32,34.52Z"/><path class="cls-2" d="M234,48.67a11.39,11.39,0,0,1-12.26,0,6.37,6.37,0,0,1-2.17-5.2V33.52H225v9.87a3.21,3.21,0,0,0,.75,2.24,3.25,3.25,0,0,0,4.37,0,3.2,3.2,0,0,0,.77-2.23V33.52h5.35v9.95A6.37,6.37,0,0,1,234,48.67Z"/><path class="cls-2" d="M260.51,34a6.9,6.9,0,0,1,3,2.15,5.35,5.35,0,0,1,1.12,3.44h-5.1a2,2,0,0,0-.92-1.68,4.4,4.4,0,0,0-5.09.37,3.94,3.94,0,0,0-1,2.84v1.55a3.94,3.94,0,0,0,1,2.84,3.8,3.8,0,0,0,2.86,1,4,4,0,0,0,2.23-.62,1.85,1.85,0,0,0,.92-1.59h-3.78V40.88h8.88v9.29h-2.75l-.54-1.65a8.81,8.81,0,0,1-5.95,1.94q-4.14,0-6.22-2.17t-2.08-6.45c0-2.82.78-5,2.36-6.42s3.81-2.19,6.71-2.19A12.14,12.14,0,0,1,260.51,34Z"/><path class="cls-2" d="M276.29,50.17V33.52h5.35V50.17Z"/><path class="cls-2" d="M100.07,68a4.72,4.72,0,0,1-2.17-.51,5.73,5.73,0,0,1-1.76-1.37A6.48,6.48,0,0,1,95,64.22,6,6,0,0,1,94.55,62a6.3,6.3,0,0,1,1.58-4.19,5.37,5.37,0,0,1,1.75-1.31,5,5,0,0,1,2.19-.48,5.16,5.16,0,0,1,2.84.72,4.58,4.58,0,0,1,1.68,1.87l-1.15.8A3.39,3.39,0,0,0,102,57.88a4,4,0,0,0-2-.51,3.39,3.39,0,0,0-1.63.39,3.82,3.82,0,0,0-1.26,1,5,5,0,0,0-.81,1.49A5.65,5.65,0,0,0,96.07,62a5.07,5.07,0,0,0,.31,1.79,4.71,4.71,0,0,0,.87,1.49,4.31,4.31,0,0,0,1.32,1,3.69,3.69,0,0,0,1.62.36,4,4,0,0,0,1.94-.51,5.93,5.93,0,0,0,1.73-1.59v1.55A4.82,4.82,0,0,1,100.07,68Zm3.61-4.86h-2.56V62.05h3.82V68h-1.26Z"/><path class="cls-2" d="M114.54,56.11h1.26L120.64,68H119l-1.33-3.47h-5.09L111.28,68h-1.6Zm2.73,7.2-2.1-5.47-2.1,5.47Z"/><path class="cls-2" d="M125.93,68V56.11H131a3.3,3.3,0,0,1,1.44.32,3.84,3.84,0,0,1,1.13.87,4.14,4.14,0,0,1,.75,1.22,3.67,3.67,0,0,1,.27,1.37,3.91,3.91,0,0,1-.31,1.56,3.8,3.8,0,0,1-.87,1.25,3,3,0,0,1-1.31.71L135,68h-1.7l-2.7-4.25h-3.14V68Zm1.5-5.59H131a1.71,1.71,0,0,0,1.07-.34,2.25,2.25,0,0,0,.72-.91,2.93,2.93,0,0,0,.26-1.22,2.53,2.53,0,0,0-.3-1.22,2.5,2.5,0,0,0-.78-.89,1.81,1.81,0,0,0-1.07-.34h-3.49Z"/><path class="cls-2" d="M144.2,56.11h1.27L150.3,68h-1.6l-1.33-3.47h-5.09L140.94,68h-1.6Zm2.73,7.2-2.1-5.47-2.1,5.47Z"/><path class="cls-2" d="M160.35,68a4.76,4.76,0,0,1-2.18-.51,5.85,5.85,0,0,1-1.76-1.37,6.48,6.48,0,0,1-1.17-1.94,6,6,0,0,1-.42-2.22,6.23,6.23,0,0,1,.42-2.28,6.39,6.39,0,0,1,1.16-1.91,5.37,5.37,0,0,1,1.75-1.31,5.06,5.06,0,0,1,2.2-.48,5.12,5.12,0,0,1,2.83.72,4.6,4.6,0,0,1,1.69,1.87l-1.15.8a3.47,3.47,0,0,0-1.42-1.53,4,4,0,0,0-2-.51,3.41,3.41,0,0,0-1.63.39,3.82,3.82,0,0,0-1.26,1,4.76,4.76,0,0,0-.8,1.49,5.37,5.37,0,0,0-.28,1.74,5.07,5.07,0,0,0,.31,1.79,4.74,4.74,0,0,0,.88,1.49,4.15,4.15,0,0,0,1.31,1,3.69,3.69,0,0,0,1.62.36,3.93,3.93,0,0,0,1.94-.51,5.93,5.93,0,0,0,1.73-1.59v1.55A4.81,4.81,0,0,1,160.35,68Zm3.6-4.86H161.4V62.05h3.82V68H164Z"/><path class="cls-2" d="M179.76,66.62V68h-8V56.11h7.89v1.33h-6.39v3.84h5.56v1.25h-5.56v4.09Z"/></svg>